<mxfile host="app.diagrams.net" modified="2024-03-21T12:18:43.709Z" agent="Mozilla/5.0 (Windows NT 10.0; Win64; x64) AppleWebKit/537.36 (KHTML, like Gecko) Chrome/123.0.0.0 Safari/537.36" etag="dU8Zt8LXSZYug3scH1-b" version="24.0.7" type="device">
  <diagram name="Page-1" id="e7e014a7-5840-1c2e-5031-d8a46d1fe8dd">
    <mxGraphModel dx="696" dy="368" grid="1" gridSize="10" guides="1" tooltips="1" connect="1" arrows="1" fold="1" page="1" pageScale="1" pageWidth="1169" pageHeight="826" background="none" math="0" shadow="0">
      <root>
        <mxCell id="0" />
        <mxCell id="1" parent="0" />
        <mxCell id="X7ksD4mG63lEe95AYVyh-41" value="" style="swimlane;startSize=0;strokeColor=#FFFFFF;fillColor=#000000;fontColor=#000000;" vertex="1" parent="1">
          <mxGeometry x="360" y="30" width="200" height="600" as="geometry" />
        </mxCell>
        <mxCell id="X7ksD4mG63lEe95AYVyh-44" value="Registration" style="ellipse;whiteSpace=wrap;html=1;" vertex="1" parent="X7ksD4mG63lEe95AYVyh-41">
          <mxGeometry x="40" y="20" width="120" height="80" as="geometry" />
        </mxCell>
        <mxCell id="X7ksD4mG63lEe95AYVyh-45" value="Collect data" style="ellipse;whiteSpace=wrap;html=1;" vertex="1" parent="X7ksD4mG63lEe95AYVyh-41">
          <mxGeometry x="41" y="132" width="120" height="80" as="geometry" />
        </mxCell>
        <mxCell id="X7ksD4mG63lEe95AYVyh-46" value="Preprocess" style="ellipse;whiteSpace=wrap;html=1;" vertex="1" parent="X7ksD4mG63lEe95AYVyh-41">
          <mxGeometry x="40" y="250" width="120" height="80" as="geometry" />
        </mxCell>
        <mxCell id="X7ksD4mG63lEe95AYVyh-47" value="Analyze" style="ellipse;whiteSpace=wrap;html=1;" vertex="1" parent="X7ksD4mG63lEe95AYVyh-41">
          <mxGeometry x="40" y="370" width="120" height="80" as="geometry" />
        </mxCell>
        <mxCell id="X7ksD4mG63lEe95AYVyh-48" value="Predict" style="ellipse;whiteSpace=wrap;html=1;" vertex="1" parent="X7ksD4mG63lEe95AYVyh-41">
          <mxGeometry x="41" y="490" width="120" height="80" as="geometry" />
        </mxCell>
        <mxCell id="X7ksD4mG63lEe95AYVyh-58" value="" style="endArrow=none;html=1;rounded=0;entryX=0;entryY=0.3333333333333333;entryDx=0;entryDy=0;entryPerimeter=0;" edge="1" parent="X7ksD4mG63lEe95AYVyh-41" target="X7ksD4mG63lEe95AYVyh-43">
          <mxGeometry width="50" height="50" relative="1" as="geometry">
            <mxPoint x="160" y="410" as="sourcePoint" />
            <mxPoint x="210" y="360" as="targetPoint" />
          </mxGeometry>
        </mxCell>
        <mxCell id="X7ksD4mG63lEe95AYVyh-59" value="" style="endArrow=none;html=1;rounded=0;entryX=0;entryY=0.3333333333333333;entryDx=0;entryDy=0;entryPerimeter=0;" edge="1" parent="X7ksD4mG63lEe95AYVyh-41" target="X7ksD4mG63lEe95AYVyh-43">
          <mxGeometry width="50" height="50" relative="1" as="geometry">
            <mxPoint x="160" y="530" as="sourcePoint" />
            <mxPoint x="210" y="480" as="targetPoint" />
          </mxGeometry>
        </mxCell>
        <mxCell id="X7ksD4mG63lEe95AYVyh-42" value="User" style="shape=umlActor;verticalLabelPosition=bottom;verticalAlign=top;html=1;" vertex="1" parent="1">
          <mxGeometry x="180" y="210" width="30" height="60" as="geometry" />
        </mxCell>
        <mxCell id="X7ksD4mG63lEe95AYVyh-43" value="Server" style="shape=umlActor;verticalLabelPosition=bottom;verticalAlign=top;html=1;" vertex="1" parent="1">
          <mxGeometry x="670" y="205" width="30" height="60" as="geometry" />
        </mxCell>
        <mxCell id="X7ksD4mG63lEe95AYVyh-55" value="" style="endArrow=none;html=1;rounded=0;entryX=0;entryY=0.3333333333333333;entryDx=0;entryDy=0;entryPerimeter=0;exitX=1;exitY=0.5;exitDx=0;exitDy=0;" edge="1" parent="1" source="X7ksD4mG63lEe95AYVyh-46" target="X7ksD4mG63lEe95AYVyh-43">
          <mxGeometry width="50" height="50" relative="1" as="geometry">
            <mxPoint x="520" y="330" as="sourcePoint" />
            <mxPoint x="570" y="280" as="targetPoint" />
          </mxGeometry>
        </mxCell>
        <mxCell id="X7ksD4mG63lEe95AYVyh-56" value="" style="endArrow=none;html=1;rounded=0;exitX=1;exitY=0.5;exitDx=0;exitDy=0;entryX=0;entryY=0.3333333333333333;entryDx=0;entryDy=0;entryPerimeter=0;" edge="1" parent="1" source="X7ksD4mG63lEe95AYVyh-45" target="X7ksD4mG63lEe95AYVyh-43">
          <mxGeometry width="50" height="50" relative="1" as="geometry">
            <mxPoint x="520" y="210" as="sourcePoint" />
            <mxPoint x="570" y="160" as="targetPoint" />
          </mxGeometry>
        </mxCell>
        <mxCell id="X7ksD4mG63lEe95AYVyh-57" value="" style="endArrow=none;html=1;rounded=0;entryX=0;entryY=0.5;entryDx=0;entryDy=0;" edge="1" parent="1" target="X7ksD4mG63lEe95AYVyh-44">
          <mxGeometry width="50" height="50" relative="1" as="geometry">
            <mxPoint x="210" y="230" as="sourcePoint" />
            <mxPoint x="260" y="180" as="targetPoint" />
          </mxGeometry>
        </mxCell>
      </root>
    </mxGraphModel>
  </diagram>
</mxfile>
